<svg width="300" height="200" viewBox="0 0 300 200" fill="none" xmlns="http://www.w3.org/2000/svg">
  <!-- Dog silhouette -->
  <path d="M150 40C130 40 115 55 115 75C115 95 130 110 150 110C170 110 185 95 185 75C185 55 170 40 150 40Z" fill="#4ECDC4" opacity="0.5"/>
  <!-- Ears -->
  <path d="M130 50C125 40 115 35 105 40C95 45 95 60 100 65C105 70 115 65 120 55L130 50Z" fill="#4ECDC4" opacity="0.7"/>
  <path d="M170 50C175 40 185 35 195 40C205 45 205 60 200 65C195 70 185 65 180 55L170 50Z" fill="#4ECDC4" opacity="0.7"/>
  <!-- Face -->
  <circle cx="140" cy="70" r="5" fill="#333"/>
  <circle cx="160" cy="70" r="5" fill="#333"/>
  <path d="M145 85C145 85 150 90 155 85" stroke="#333" stroke-width="2" stroke-linecap="round"/>
  <!-- Nose -->
  <path d="M150 80C147 80 145 82 145 85C145 88 147 90 150 90C153 90 155 88 155 85C155 82 153 80 150 80Z" fill="#FF6B6B"/>
  <!-- Question mark -->
  <text x="200" y="60" font-size="40" font-weight="bold" fill="#FF6B6B">?</text>
  <!-- Paw prints -->
  <g transform="translate(80, 140) rotate(-15)">
    <circle cx="0" cy="0" r="5" fill="#4ECDC4" opacity="0.5"/>
    <circle cx="10" cy="-5" r="5" fill="#4ECDC4" opacity="0.5"/>
    <circle cx="10" cy="5" r="5" fill="#4ECDC4" opacity="0.5"/>
    <circle cx="20" cy="0" r="5" fill="#4ECDC4" opacity="0.5"/>
  </g>
  <g transform="translate(120, 150) rotate(-5)">
    <circle cx="0" cy="0" r="5" fill="#4ECDC4" opacity="0.5"/>
    <circle cx="10" cy="-5" r="5" fill="#4ECDC4" opacity="0.5"/>
    <circle cx="10" cy="5" r="5" fill="#4ECDC4" opacity="0.5"/>
    <circle cx="20" cy="0" r="5" fill="#4ECDC4" opacity="0.5"/>
  </g>
  <g transform="translate(160, 155) rotate(5)">
    <circle cx="0" cy="0" r="5" fill="#4ECDC4" opacity="0.5"/>
    <circle cx="10" cy="-5" r="5" fill="#4ECDC4" opacity="0.5"/>
    <circle cx="10" cy="5" r="5" fill="#4ECDC4" opacity="0.5"/>
    <circle cx="20" cy="0" r="5" fill="#4ECDC4" opacity="0.5"/>
  </g>
  <g transform="translate(200, 145) rotate(15)">
    <circle cx="0" cy="0" r="5" fill="#4ECDC4" opacity="0.5"/>
    <circle cx="10" cy="-5" r="5" fill="#4ECDC4" opacity="0.5"/>
    <circle cx="10" cy="5" r="5" fill="#4ECDC4" opacity="0.5"/>
    <circle cx="20" cy="0" r="5" fill="#4ECDC4" opacity="0.5"/>
  </g>
</svg>